<svg xmlns="http://www.w3.org/2000/svg" viewBox="0 0 128 128" width="128" height="128" shape-rendering="crispEdges">
  <!-- Base lighter green -->
  <rect width="128" height="128" fill="#C8EAAC"/>

  <rect x="9" y="8" width="3" height="3" fill="#5DA348"/>
  <rect x="6" y="11" width="3" height="3" fill="#5DA348"/>
  <rect x="12" y="11" width="3" height="3" fill="#5DA348"/>

  <rect x="72" y="12" width="3" height="3" fill="#5DA348"/>
  <rect x="69" y="15" width="3" height="3" fill="#5DA348"/>
  <rect x="75" y="15" width="3" height="3" fill="#5DA348"/>

  <rect x="38" y="36" width="3" height="3" fill="#5DA348"/>
  <rect x="35" y="39" width="3" height="3" fill="#5DA348"/>
  <rect x="41" y="39" width="3" height="3" fill="#5DA348"/>

  <rect x="105" y="32" width="3" height="3" fill="#5DA348"/>
  <rect x="102" y="35" width="3" height="3" fill="#5DA348"/>
  <rect x="108" y="35" width="3" height="3" fill="#5DA348"/>

  <rect x="12" y="62" width="3" height="3" fill="#5DA348"/>
  <rect x="9" y="65" width="3" height="3" fill="#5DA348"/>
  <rect x="15" y="65" width="3" height="3" fill="#5DA348"/>

  <rect x="80" y="58" width="3" height="3" fill="#5DA348"/>
  <rect x="77" y="61" width="3" height="3" fill="#5DA348"/>
  <rect x="83" y="61" width="3" height="3" fill="#5DA348"/>

  <rect x="50" y="82" width="3" height="3" fill="#5DA348"/>
  <rect x="47" y="85" width="3" height="3" fill="#5DA348"/>
  <rect x="53" y="85" width="3" height="3" fill="#5DA348"/>

  <rect x="115" y="78" width="3" height="3" fill="#5DA348"/>
  <rect x="112" y="81" width="3" height="3" fill="#5DA348"/>
  <rect x="118" y="81" width="3" height="3" fill="#5DA348"/>

  <rect x="22" y="105" width="3" height="3" fill="#5DA348"/>
  <rect x="19" y="108" width="3" height="3" fill="#5DA348"/>
  <rect x="25" y="108" width="3" height="3" fill="#5DA348"/>

  <rect x="88" y="108" width="3" height="3" fill="#5DA348"/>
  <rect x="85" y="111" width="3" height="3" fill="#5DA348"/>
  <rect x="91" y="111" width="3" height="3" fill="#5DA348"/>
</svg>
